<mxfile host="app.diagrams.net" agent="Mozilla/5.0 (Windows NT 10.0; Win64; x64) AppleWebKit/537.36 (KHTML, like Gecko) Chrome/130.0.0.0 Safari/537.36 Edg/130.0.0.0" version="24.8.3">
  <diagram name="第 1 页" id="m5vAoL9xg7GJbXBNfQwp">
    <mxGraphModel dx="639" dy="389" grid="1" gridSize="10" guides="1" tooltips="1" connect="1" arrows="1" fold="1" page="1" pageScale="1" pageWidth="827" pageHeight="1169" math="0" shadow="0">
      <root>
        <mxCell id="0" />
        <mxCell id="1" parent="0" />
        <mxCell id="iLdxthDhzkOjvci4m4Ki-2" value="接入层" style="rounded=1;whiteSpace=wrap;html=1;fillColor=#dae8fc;strokeColor=#6c8ebf;" vertex="1" parent="1">
          <mxGeometry x="210" y="90" width="90" height="40" as="geometry" />
        </mxCell>
        <mxCell id="iLdxthDhzkOjvci4m4Ki-5" value="服务层" style="rounded=1;whiteSpace=wrap;html=1;fillColor=#d5e8d4;strokeColor=#82b366;" vertex="1" parent="1">
          <mxGeometry x="210" y="240" width="90" height="70" as="geometry" />
        </mxCell>
        <mxCell id="iLdxthDhzkOjvci4m4Ki-6" value="存储层" style="rounded=1;whiteSpace=wrap;html=1;fillColor=#e1d5e7;strokeColor=#9673a6;" vertex="1" parent="1">
          <mxGeometry x="210" y="330" width="90" height="70" as="geometry" />
        </mxCell>
        <mxCell id="iLdxthDhzkOjvci4m4Ki-7" value="" style="rounded=1;whiteSpace=wrap;html=1;fillColor=#e1d5e7;strokeColor=#9673a6;" vertex="1" parent="1">
          <mxGeometry x="340" y="330" width="350" height="70" as="geometry" />
        </mxCell>
        <mxCell id="iLdxthDhzkOjvci4m4Ki-16" value="" style="shape=cylinder3;whiteSpace=wrap;html=1;boundedLbl=1;backgroundOutline=1;size=15;" vertex="1" parent="1">
          <mxGeometry x="385" y="335" width="50" height="60" as="geometry" />
        </mxCell>
        <mxCell id="iLdxthDhzkOjvci4m4Ki-17" value="MySql" style="text;html=1;align=center;verticalAlign=middle;whiteSpace=wrap;rounded=0;" vertex="1" parent="1">
          <mxGeometry x="380" y="360" width="60" height="30" as="geometry" />
        </mxCell>
        <mxCell id="iLdxthDhzkOjvci4m4Ki-18" value="" style="shape=cylinder3;whiteSpace=wrap;html=1;boundedLbl=1;backgroundOutline=1;size=15;" vertex="1" parent="1">
          <mxGeometry x="490" y="335" width="50" height="60" as="geometry" />
        </mxCell>
        <mxCell id="iLdxthDhzkOjvci4m4Ki-19" value="Redis" style="text;html=1;align=center;verticalAlign=middle;whiteSpace=wrap;rounded=0;" vertex="1" parent="1">
          <mxGeometry x="485" y="360" width="60" height="30" as="geometry" />
        </mxCell>
        <mxCell id="iLdxthDhzkOjvci4m4Ki-20" value="" style="shape=cylinder3;whiteSpace=wrap;html=1;boundedLbl=1;backgroundOutline=1;size=15;" vertex="1" parent="1">
          <mxGeometry x="595" y="335" width="50" height="60" as="geometry" />
        </mxCell>
        <mxCell id="iLdxthDhzkOjvci4m4Ki-21" value="COS" style="text;html=1;align=center;verticalAlign=middle;whiteSpace=wrap;rounded=0;" vertex="1" parent="1">
          <mxGeometry x="590" y="360" width="60" height="30" as="geometry" />
        </mxCell>
        <mxCell id="iLdxthDhzkOjvci4m4Ki-47" style="edgeStyle=orthogonalEdgeStyle;rounded=0;orthogonalLoop=1;jettySize=auto;html=1;entryX=0.5;entryY=0;entryDx=0;entryDy=0;" edge="1" parent="1" source="iLdxthDhzkOjvci4m4Ki-24" target="iLdxthDhzkOjvci4m4Ki-7">
          <mxGeometry relative="1" as="geometry" />
        </mxCell>
        <mxCell id="iLdxthDhzkOjvci4m4Ki-24" value="" style="rounded=1;whiteSpace=wrap;html=1;fillColor=#d5e8d4;strokeColor=#82b366;" vertex="1" parent="1">
          <mxGeometry x="340" y="240" width="350" height="70" as="geometry" />
        </mxCell>
        <mxCell id="iLdxthDhzkOjvci4m4Ki-26" value="鉴权服务" style="rounded=0;whiteSpace=wrap;html=1;" vertex="1" parent="1">
          <mxGeometry x="379" y="250" width="70" height="20" as="geometry" />
        </mxCell>
        <mxCell id="iLdxthDhzkOjvci4m4Ki-27" value="文件服务" style="rounded=0;whiteSpace=wrap;html=1;" vertex="1" parent="1">
          <mxGeometry x="480" y="250" width="70" height="20" as="geometry" />
        </mxCell>
        <mxCell id="iLdxthDhzkOjvci4m4Ki-28" value="缓存服务" style="rounded=0;whiteSpace=wrap;html=1;" vertex="1" parent="1">
          <mxGeometry x="379" y="280" width="70" height="20" as="geometry" />
        </mxCell>
        <mxCell id="iLdxthDhzkOjvci4m4Ki-29" value="算法服务" style="rounded=0;whiteSpace=wrap;html=1;" vertex="1" parent="1">
          <mxGeometry x="480" y="280" width="70" height="20" as="geometry" />
        </mxCell>
        <mxCell id="iLdxthDhzkOjvci4m4Ki-30" value="Prompt服务" style="rounded=0;whiteSpace=wrap;html=1;" vertex="1" parent="1">
          <mxGeometry x="575" y="250" width="70" height="20" as="geometry" />
        </mxCell>
        <mxCell id="iLdxthDhzkOjvci4m4Ki-31" value="模型服务" style="rounded=0;whiteSpace=wrap;html=1;" vertex="1" parent="1">
          <mxGeometry x="575" y="280" width="70" height="20" as="geometry" />
        </mxCell>
        <mxCell id="iLdxthDhzkOjvci4m4Ki-32" value="业务层" style="rounded=1;whiteSpace=wrap;html=1;fillColor=#ffe6cc;strokeColor=#d79b00;" vertex="1" parent="1">
          <mxGeometry x="210" y="150" width="90" height="60" as="geometry" />
        </mxCell>
        <mxCell id="iLdxthDhzkOjvci4m4Ki-46" style="edgeStyle=orthogonalEdgeStyle;rounded=0;orthogonalLoop=1;jettySize=auto;html=1;entryX=0.5;entryY=0;entryDx=0;entryDy=0;" edge="1" parent="1" source="iLdxthDhzkOjvci4m4Ki-33" target="iLdxthDhzkOjvci4m4Ki-24">
          <mxGeometry relative="1" as="geometry" />
        </mxCell>
        <mxCell id="iLdxthDhzkOjvci4m4Ki-33" value="" style="rounded=1;whiteSpace=wrap;html=1;fillColor=#ffe6cc;strokeColor=#d79b00;" vertex="1" parent="1">
          <mxGeometry x="340" y="150" width="350" height="70" as="geometry" />
        </mxCell>
        <mxCell id="iLdxthDhzkOjvci4m4Ki-34" value="用户模块" style="rounded=0;whiteSpace=wrap;html=1;" vertex="1" parent="1">
          <mxGeometry x="379" y="160" width="70" height="20" as="geometry" />
        </mxCell>
        <mxCell id="iLdxthDhzkOjvci4m4Ki-35" value="Prompt模块" style="rounded=0;whiteSpace=wrap;html=1;" vertex="1" parent="1">
          <mxGeometry x="480" y="160" width="70" height="20" as="geometry" />
        </mxCell>
        <mxCell id="iLdxthDhzkOjvci4m4Ki-36" value="图表模块" style="rounded=0;whiteSpace=wrap;html=1;" vertex="1" parent="1">
          <mxGeometry x="379" y="190" width="70" height="20" as="geometry" />
        </mxCell>
        <mxCell id="iLdxthDhzkOjvci4m4Ki-37" value="&lt;font style=&quot;font-size: 11px;&quot;&gt;表格操作模块&lt;/font&gt;" style="rounded=0;whiteSpace=wrap;html=1;" vertex="1" parent="1">
          <mxGeometry x="480" y="190" width="70" height="20" as="geometry" />
        </mxCell>
        <mxCell id="iLdxthDhzkOjvci4m4Ki-38" value="算法模块" style="rounded=0;whiteSpace=wrap;html=1;" vertex="1" parent="1">
          <mxGeometry x="575" y="160" width="70" height="20" as="geometry" />
        </mxCell>
        <mxCell id="iLdxthDhzkOjvci4m4Ki-39" value="&lt;font style=&quot;font-size: 11px;&quot;&gt;参数解析模块&lt;/font&gt;" style="rounded=0;whiteSpace=wrap;html=1;" vertex="1" parent="1">
          <mxGeometry x="575" y="190" width="70" height="20" as="geometry" />
        </mxCell>
        <mxCell id="iLdxthDhzkOjvci4m4Ki-45" style="edgeStyle=orthogonalEdgeStyle;rounded=0;orthogonalLoop=1;jettySize=auto;html=1;entryX=0.5;entryY=0;entryDx=0;entryDy=0;" edge="1" parent="1" source="iLdxthDhzkOjvci4m4Ki-40" target="iLdxthDhzkOjvci4m4Ki-33">
          <mxGeometry relative="1" as="geometry" />
        </mxCell>
        <mxCell id="iLdxthDhzkOjvci4m4Ki-40" value="Nginx负载均衡" style="rounded=1;whiteSpace=wrap;html=1;fillColor=#dae8fc;strokeColor=#6c8ebf;" vertex="1" parent="1">
          <mxGeometry x="340" y="90" width="350" height="40" as="geometry" />
        </mxCell>
        <mxCell id="iLdxthDhzkOjvci4m4Ki-48" value="" style="endArrow=none;dashed=1;html=1;dashPattern=1 3;strokeWidth=1;rounded=1;curved=0;strokeColor=#2B2B2B;" edge="1" parent="1">
          <mxGeometry width="50" height="50" relative="1" as="geometry">
            <mxPoint x="190" y="140" as="sourcePoint" />
            <mxPoint x="710" y="140" as="targetPoint" />
          </mxGeometry>
        </mxCell>
        <mxCell id="iLdxthDhzkOjvci4m4Ki-49" value="" style="endArrow=none;dashed=1;html=1;dashPattern=1 3;strokeWidth=1;rounded=1;curved=0;strokeColor=#2B2B2B;" edge="1" parent="1">
          <mxGeometry width="50" height="50" relative="1" as="geometry">
            <mxPoint x="190" y="230" as="sourcePoint" />
            <mxPoint x="710" y="230" as="targetPoint" />
          </mxGeometry>
        </mxCell>
        <mxCell id="iLdxthDhzkOjvci4m4Ki-50" value="" style="endArrow=none;dashed=1;html=1;dashPattern=1 3;strokeWidth=1;rounded=1;curved=0;strokeColor=#2B2B2B;" edge="1" parent="1">
          <mxGeometry width="50" height="50" relative="1" as="geometry">
            <mxPoint x="190" y="320" as="sourcePoint" />
            <mxPoint x="710" y="320" as="targetPoint" />
          </mxGeometry>
        </mxCell>
      </root>
    </mxGraphModel>
  </diagram>
</mxfile>
